<?xml version="1.0" ?><svg id="Layer_1" style="enable-background:new 1 -1 100 100;" version="1.1" viewBox="1 -1 100 100" xml:space="preserve" xmlns="http://www.w3.org/2000/svg" xmlns:xlink="http://www.w3.org/1999/xlink"><title/><path d="M83.3,10.8H18.7c-6.1,0-11.1,5-11.1,11.1v43.4c0,6.1,5,11.1,11.1,11.1h17.6l10.2,9.1c2.5,2.3,6.4,2.3,8.9,0l10.2-9.1h17.6  c6.1,0,11.1-5,11.1-11.1V21.9C94.4,15.7,89.4,10.8,83.3,10.8z M32.1,51.5c-4,0-7.2-3.2-7.2-7.2s3.2-7.2,7.2-7.2s7.2,3.2,7.2,7.2  S36.1,51.5,32.1,51.5z M52.2,51.5c-4,0-7.2-3.2-7.2-7.2s3.2-7.2,7.2-7.2s7.2,3.2,7.2,7.2S56.2,51.5,52.2,51.5z M72.3,51.5  c-4,0-7.2-3.2-7.2-7.2s3.2-7.2,7.2-7.2s7.2,3.2,7.2,7.2S76.3,51.5,72.3,51.5z"/></svg>