<?xml version="1.0" ?><svg fill="none" height="512" viewBox="0 0 512 512" width="512" xmlns="http://www.w3.org/2000/svg"><path d="M270.397 234.64C329.684 234.64 377.747 186.591 377.747 127.32C377.747 68.0488 329.684 20 270.397 20C211.109 20 163.047 68.0488 163.047 127.32C163.047 186.591 211.109 234.64 270.397 234.64Z" fill="black"/><path d="M404.867 290.98C386.23 271.376 360.938 259.445 333.957 257.53C281.486 254.22 228.858 254.22 176.387 257.53C149.817 259.461 124.927 271.249 106.597 290.58C88.5963 309.567 78.7002 334.819 79.0069 360.98C79.0069 442.75 173.507 488.04 257.717 490.72H263.797C345.957 495.35 432.957 450.69 432.957 370.85V362.48C433.256 335.899 423.179 310.249 404.867 290.98Z" fill="black"/></svg>